<?xml version="1.0" standalone="no"?>
<!DOCTYPE svg PUBLIC "-//W3C//DTD SVG 20010904//EN"
 "http://www.w3.org/TR/2001/REC-SVG-20010904/DTD/svg10.dtd">
<svg version="1.0" xmlns="http://www.w3.org/2000/svg"
 width="608.000000pt" height="608.000000pt" viewBox="0 0 608.000000 608.000000"
 preserveAspectRatio="xMidYMid meet">
<metadata>
Created by potrace 1.14, written by Peter Selinger 2001-2017
</metadata>
<g transform="translate(0.000000,608.000000) scale(0.100000,-0.100000)"
fill="#000000" stroke="none">
<path d="M1731 5701 c-4 -3 -13 -33 -19 -66 -6 -33 -14 -73 -17 -90 -3 -16
-10 -56 -15 -87 -6 -32 -13 -70 -15 -85 -3 -16 -15 -80 -26 -143 -11 -63 -21
-122 -24 -130 -2 -8 -6 -33 -9 -55 -4 -22 -11 -62 -16 -90 -5 -27 -12 -63 -15
-80 -3 -16 -7 -41 -10 -55 -3 -14 -9 -50 -15 -80 -5 -30 -11 -64 -13 -75 -3
-11 -8 -42 -12 -70 -4 -27 -7 -51 -7 -52 -1 -1 -6 -26 -13 -55 l-12 -53 -471
0 c-412 0 -472 -2 -474 -15 -2 -22 -4 -33 -10 -50 -3 -8 -13 -58 -22 -110 -9
-52 -18 -106 -21 -120 -2 -13 -7 -40 -10 -60 -3 -20 -8 -47 -11 -60 -10 -45
-21 -111 -29 -164 -2 -15 -6 -35 -9 -45 -3 -9 -8 -34 -11 -56 l-5 -40 462 1
c255 0 469 -2 475 -4 7 -2 11 -7 9 -11 -4 -6 -66 -342 -81 -441 -6 -36 -17
-93 -30 -160 -3 -14 -7 -41 -10 -60 -2 -19 -4 -35 -5 -35 -1 0 -3 -11 -6 -25
-2 -14 -11 -61 -19 -105 -8 -44 -17 -97 -21 -119 -6 -43 -11 -69 -19 -106 -3
-14 -7 -38 -10 -55 -4 -28 -26 -149 -40 -225 -4 -19 -9 -44 -10 -55 -33 -199
-39 -225 -57 -231 -17 -5 -207 -8 -233 -3 -5 1 -14 1 -19 0 -13 -3 -98 -3
-111 -1 -5 1 -30 1 -55 1 -25 -1 -103 -1 -175 -1 -72 0 -136 1 -142 0 -7 0
-34 0 -60 0 -86 1 -117 -1 -121 -5 -4 -4 -9 -28 -28 -125 -3 -14 -18 -92 -34
-175 -16 -82 -31 -161 -34 -175 -6 -33 -25 -129 -31 -160 -3 -14 -7 -37 -10
-51 l-5 -26 466 0 c256 -1 467 -2 469 -4 2 -3 0 -24 -5 -49 -5 -25 -30 -160
-55 -300 -25 -140 -47 -266 -50 -280 -3 -14 -8 -43 -11 -64 -3 -22 -7 -43 -9
-46 -4 -7 -18 -96 -19 -122 0 -10 -3 -18 -6 -18 -3 0 -6 -13 -7 -28 -1 -15 -4
-39 -6 -53 l-5 -25 363 1 c200 0 366 2 369 5 2 3 8 28 11 55 4 28 9 53 11 56
2 4 6 26 9 50 3 23 10 61 15 83 5 23 11 61 15 86 3 25 8 52 11 61 3 10 6 30 8
45 4 28 21 122 31 174 3 14 8 39 11 55 3 17 14 80 25 140 11 61 22 125 25 144
3 18 8 43 10 55 3 11 7 39 10 61 3 22 10 44 15 50 7 6 211 10 567 11 306 0
567 3 578 6 20 6 74 16 119 23 11 2 21 4 23 5 1 2 5 3 10 4 137 31 310 98 429
167 83 47 110 58 99 41 -3 -5 -8 -24 -11 -43 -3 -19 -10 -60 -16 -92 -5 -32
-12 -71 -14 -87 -2 -16 -6 -33 -8 -37 -3 -4 -7 -31 -11 -60 -3 -28 -8 -57 -10
-65 -3 -7 -7 -29 -10 -48 -3 -19 -10 -60 -16 -90 -6 -30 -13 -68 -16 -85 -8
-53 -24 -139 -29 -165 -5 -26 -8 -43 -25 -140 -17 -98 -20 -115 -25 -140 -3
-14 -10 -54 -16 -89 -5 -36 -11 -67 -13 -70 -2 -3 -7 -28 -10 -56 -4 -27 -9
-64 -12 -81 l-5 -31 365 1 365 0 7 29 c3 16 7 38 9 50 1 12 7 49 13 82 6 33
14 74 17 90 2 17 7 40 9 51 2 12 7 37 10 55 9 56 16 91 26 144 15 76 18 89 24
131 12 77 27 160 36 204 5 25 12 61 14 81 7 48 16 69 30 70 6 0 271 1 588 1
l578 1 6 36 c4 20 9 45 11 56 5 24 9 47 17 100 4 22 11 60 16 85 6 25 12 61
14 80 3 19 12 71 20 115 18 96 24 129 32 174 3 18 7 42 9 52 3 16 -3 19 -38
20 -23 1 -46 0 -52 -1 -5 -1 -68 -1 -140 -1 -71 1 -136 2 -142 1 -21 0 -100 0
-155 0 -29 0 -109 0 -178 -1 -69 0 -127 1 -130 2 -3 1 -9 1 -14 0 -13 -3 -98
-3 -111 -1 -9 2 -26 1 -130 -1 -87 -2 -85 -3 -80 39 3 20 9 60 15 87 5 28 12
67 14 87 2 21 7 41 9 45 3 4 8 28 11 53 3 25 8 55 10 66 2 12 7 38 10 58 3 19
11 57 16 82 6 26 8 49 5 52 -2 3 -1 10 4 16 5 6 12 31 14 56 3 25 15 95 27
155 11 61 23 126 26 145 3 19 8 46 10 60 3 14 7 34 9 45 1 11 12 72 24 135 11
63 23 129 26 145 2 17 7 41 10 55 3 14 8 43 10 64 3 21 7 42 9 45 4 6 18 105
19 129 0 6 5 13 11 13 6 1 273 2 593 3 320 1 584 4 587 7 3 3 11 30 16 60 6
30 12 65 15 79 3 14 8 40 11 59 3 18 8 43 10 55 2 11 6 32 9 46 3 14 12 59 20
100 9 41 17 84 19 95 1 11 5 34 9 50 4 17 9 41 11 55 2 14 9 44 14 67 8 35 7
42 -7 45 -9 2 -276 3 -594 2 l-578 -1 5 46 c3 25 10 71 16 101 6 30 12 64 14
75 2 11 6 34 10 50 4 17 9 46 11 65 2 19 11 71 20 115 8 44 18 96 21 115 3 19
7 42 9 50 3 8 7 33 10 55 3 22 9 54 12 70 4 17 8 36 9 43 1 8 8 46 16 85 7 40
12 78 11 85 0 6 2 12 6 12 3 0 6 10 7 23 0 24 10 92 18 129 7 28 15 70 22 119
l5 35 -365 0 c-201 0 -366 -2 -366 -5 0 -4 -6 -37 -14 -76 -8 -38 -17 -86 -20
-105 -3 -19 -8 -46 -11 -60 -3 -14 -8 -38 -10 -55 -11 -61 -25 -141 -29 -161
-2 -12 -7 -37 -10 -55 -3 -19 -8 -45 -10 -59 -3 -14 -12 -63 -20 -110 -8 -47
-17 -96 -20 -110 -3 -14 -10 -54 -16 -90 -6 -36 -13 -76 -16 -90 -4 -23 -29
-161 -39 -220 -3 -14 -7 -37 -10 -51 l-6 -26 -889 1 -889 0 4 35 c2 20 4 36 5
36 1 0 3 11 6 25 2 14 8 48 14 75 13 68 19 103 25 145 3 19 8 46 11 60 3 14 8
35 10 48 6 34 23 133 29 171 3 19 7 37 9 40 2 3 7 29 10 56 4 28 9 57 11 65 2
8 6 31 9 50 6 36 12 69 21 118 3 15 8 41 10 57 3 17 7 41 10 55 2 14 7 41 11
60 3 19 7 42 9 50 6 28 17 105 16 115 -1 11 -704 16 -720 6z m1459 -2176 c36
-10 67 -21 70 -24 3 -3 11 -7 19 -9 21 -4 113 -67 148 -101 163 -158 203 -414
103 -655 -45 -106 -98 -185 -184 -269 -85 -83 -85 -83 -151 -122 -258 -154
-537 -169 -742 -39 -289 184 -330 577 -92 900 192 261 547 398 829 319z"/>
</g>
</svg>
