<svg width="38" height="34" viewBox="0 0 38 34" fill="none" xmlns="http://www.w3.org/2000/svg">
<path id="Vector" d="M36.2294 12.7765L37.0972 8.29063H29.648L31.0823 0.337158H26.5L25.0658 8.29063H13.931L15.3606 0.337158H10.7784L9.34871 8.29063H3.42843L2.61736 12.7765H8.53764L6.70475 23.0043H0.867771L0 27.4902H5.87075L4.75729 33.6628H9.33953L10.6134 26.5886L16.7857 26.62C18.6631 26.5435 20.4829 25.9631 22.0461 24.9422L20.4789 33.6628H25.0612L26.1701 27.4902H33.5613L34.3677 23.0043H26.9812L28.8141 12.7765H36.2294ZM17.3447 22.1475C14.9986 22.1475 13.4269 20.2769 13.8439 17.9801C14.0781 16.8364 14.6994 15.8034 15.6073 15.0481C16.5153 14.2927 17.6569 13.8591 18.8477 13.8172C21.1938 13.8172 22.7655 15.6834 22.3531 17.9801C22.1173 19.1243 21.4951 20.1576 20.5866 20.9135C19.6781 21.6695 18.5362 22.1041 17.3447 22.1475Z" fill="white"/>
</svg>
